<svg xmlns="http://www.w3.org/2000/svg" viewBox="0 0 100 100">
  <path fill="white" d="m89.352 8.3281c-5.6406 2-10.844 5.0547-15.34 9-2.8008 2.5117-6.2305 6.3711-10.199 10.828-6.7305 7.5703-15.051 16.91-23.66 23.27l9.7188 9.7188 7.1289 7.207c5.1406-4.0898 36.27-30.352 32.352-60.023zm-31.273 51.25c-0.19531 0.19531-0.46484 0.29688-0.74219 0.28516-0.27734-0.015625-0.53516-0.14062-0.71484-0.35156-0.19141-0.19922-0.29297-0.46875-0.27734-0.74219 0.011719-0.27344 0.13672-0.53125 0.34766-0.71094 7.8984-7.2305 21.59-21.84 24.461-38.422l-0.003906 0.003906c0.097656-0.55469 0.625-0.92188 1.1758-0.82422 0.55469 0.09375 0.92188 0.62109 0.82422 1.1719-2.9492 17.191-16.977 32.184-25.07 39.59zm-19.508-6.7773 9.1289 9.1406-18.301 18.297c-2.0117 1.9922-3.5938 4.375-4.6484 7-0.35156 0.88672-0.87891 1.6875-1.5508 2.3633-1.3047 1.2695-3.0312 2.0195-4.8477 2.0977-2.1602 0.17969-4.2852-0.58203-5.8398-2.0898-2.9141-2.918-2.9648-7.625-0.12109-10.609 0.050781-0.03125 0.10156-0.070312 0.14062-0.12109z"/>
</svg>
